<?xml version="1.0" standalone="no"?>
<!DOCTYPE svg PUBLIC "-//W3C//DTD SVG 20010904//EN"
 "http://www.w3.org/TR/2001/REC-SVG-20010904/DTD/svg10.dtd">
<svg version="1.0" xmlns="http://www.w3.org/2000/svg"
 width="976.000000pt" height="976.000000pt" viewBox="0 0 976.000000 976.000000"
 preserveAspectRatio="xMidYMid meet">
<metadata>
Created by potrace 1.11, written by Peter Selinger 2001-2013
</metadata>
<g transform="translate(0.000000,976.000000) scale(0.100000,-0.100000)"
fill="#000000" stroke="none">
<path d="M5783 9731 c-46 -15 -83 -26 -83 -23 0 2 -6 0 -12 -6 -7 -5 -33 -16
-58 -23 -56 -16 -52 -14 -70 -22 -13 -5 -298 -100 -310 -103 -3 0 -12 -3 -20
-7 -20 -7 -542 -179 -555 -182 -5 -1 -17 -5 -25 -8 -43 -17 -169 -60 -200 -67
-19 -5 -96 -30 -170 -56 -74 -26 -142 -47 -150 -48 -9 -1 -20 -5 -25 -8 -6 -3
-69 -25 -140 -48 -72 -23 -141 -46 -155 -52 -14 -5 -68 -23 -120 -39 -52 -16
-102 -32 -110 -36 -8 -3 -19 -7 -25 -9 -5 -1 -41 -13 -80 -27 -38 -13 -74 -25
-80 -27 -5 -1 -20 -6 -33 -11 -13 -5 -27 -9 -32 -9 -5 0 -21 -5 -37 -12 -15
-6 -34 -12 -42 -14 -7 -1 -48 -15 -90 -29 l-76 -27 -48 -86 c-26 -48 -57 -103
-69 -122 -11 -19 -31 -55 -45 -80 -13 -25 -32 -58 -42 -75 -10 -16 -29 -50
-43 -75 -14 -25 -34 -61 -45 -80 -33 -56 -190 -334 -219 -387 -15 -26 -109
-192 -209 -368 -100 -176 -190 -336 -200 -355 -10 -19 -21 -37 -24 -40 -3 -3
-19 -30 -35 -60 -47 -88 -51 -95 -56 -100 -3 -3 -11 -16 -18 -30 -6 -14 -17
-34 -24 -45 -7 -11 -23 -37 -35 -57 -13 -21 -20 -38 -16 -38 5 0 3 -4 -2 -8
-10 -6 -58 -90 -150 -257 -16 -27 -32 -52 -37 -53 -4 -2 -6 -7 -3 -12 3 -4 -2
-13 -10 -20 -8 -7 -15 -16 -15 -21 0 -5 -20 -43 -45 -85 -25 -41 -45 -78 -45
-82 0 -3 -11 -22 -24 -41 -22 -34 -280 -488 -360 -636 -6 -11 -13 -22 -16 -25
-3 -3 -11 -16 -17 -30 -7 -14 -25 -47 -41 -75 -111 -191 -132 -228 -132 -231
0 -2 -14 -27 -31 -56 -42 -70 -78 -134 -103 -183 -12 -22 -25 -44 -29 -50 -20
-26 -135 -235 -129 -235 4 0 2 -4 -4 -8 -6 -4 -21 -27 -34 -52 -14 -25 -29
-52 -36 -60 -6 -8 -27 -44 -46 -80 -19 -36 -44 -81 -56 -100 -11 -19 -29 -51
-40 -70 -11 -19 -29 -52 -41 -73 -11 -21 -21 -39 -21 -40 0 -2 2196 0 2236 2
17 1 37 29 90 124 37 67 71 124 76 125 4 2 6 7 3 12 -3 4 2 13 10 20 8 7 15
16 15 21 0 4 17 36 37 71 20 35 36 64 35 66 -2 1 4 10 13 18 8 9 15 22 15 30
0 8 5 14 10 14 6 0 10 4 10 9 0 12 93 175 102 179 4 2 8 8 8 13 0 6 25 53 55
105 30 53 55 100 55 105 0 5 5 9 12 9 6 0 8 3 5 6 -4 4 2 19 12 33 10 14 30
46 43 71 53 96 76 137 105 185 16 28 32 57 36 65 4 8 15 29 25 45 10 17 30 50
44 75 30 54 47 83 128 225 34 61 74 130 88 155 14 25 50 88 80 140 30 52 70
124 90 160 19 36 39 70 44 77 5 7 17 27 27 45 34 65 135 243 140 248 4 3 13
19 21 35 8 17 24 46 36 65 11 19 38 67 59 105 21 39 45 78 53 88 8 9 12 17 8
17 -4 0 1 12 12 28 19 26 51 83 100 172 13 24 33 57 44 72 10 15 16 28 11 28
-4 0 -3 4 2 8 10 7 22 26 61 101 13 24 28 49 33 55 4 6 23 38 41 71 18 33 44
78 56 100 13 22 27 47 31 55 4 8 23 42 43 75 19 33 41 71 48 85 6 14 16 32 22
40 11 18 64 108 95 165 44 80 135 240 145 255 10 15 31 54 64 117 10 18 21 35
27 38 5 4 9 15 9 26 0 10 3 19 8 19 4 0 21 26 37 58 17 31 33 59 36 62 3 3 9
12 12 20 4 8 15 29 25 45 10 17 36 62 57 100 21 39 49 87 62 107 12 21 23 40
23 44 0 3 7 12 15 21 8 8 13 19 10 24 -4 5 -1 9 4 9 6 0 11 4 11 8 0 5 55 105
123 223 67 118 129 228 137 245 8 16 17 31 21 34 3 3 22 37 44 75 21 39 49 89
62 113 14 23 23 42 21 41 -1 0 -40 -13 -85 -28z"/>
<path d="M6286 8803 c-33 -60 -62 -110 -65 -113 -4 -3 -15 -23 -26 -45 -11
-22 -22 -42 -25 -45 -3 -3 -12 -18 -20 -35 -8 -16 -18 -32 -21 -35 -3 -3 -12
-18 -21 -35 -16 -33 -51 -94 -79 -140 -11 -16 -22 -37 -26 -45 -3 -8 -39 -71
-78 -140 -39 -69 -84 -147 -99 -175 -15 -27 -63 -111 -107 -187 -43 -75 -79
-142 -79 -148 0 -5 -4 -10 -10 -10 -5 0 -10 -4 -10 -9 0 -5 -22 -47 -50 -94
-27 -47 -50 -90 -50 -96 0 -6 -4 -11 -9 -11 -5 0 -11 -8 -14 -17 -5 -16 -27
-55 -85 -153 -11 -19 -33 -57 -48 -85 -14 -27 -46 -83 -70 -122 -24 -40 -44
-77 -44 -82 0 -5 -6 -16 -12 -23 -7 -8 -18 -23 -24 -33 -6 -11 -23 -42 -39
-70 -15 -27 -44 -79 -63 -115 -19 -36 -41 -72 -48 -81 -8 -8 -14 -18 -14 -22
0 -5 -115 -209 -140 -247 -5 -8 -16 -28 -24 -45 -8 -16 -29 -52 -45 -80 -17
-27 -43 -72 -58 -100 -15 -27 -33 -59 -40 -70 -7 -11 -17 -32 -24 -47 -6 -16
-15 -28 -19 -28 -5 0 -11 -9 -15 -19 -3 -10 -37 -74 -75 -141 -39 -67 -70
-126 -70 -131 0 -5 -4 -9 -10 -9 -5 0 -10 -4 -10 -9 0 -9 -90 -172 -100 -181
-3 -3 -13 -21 -23 -40 -9 -19 -28 -53 -41 -75 -12 -22 -38 -67 -56 -100 -18
-33 -40 -68 -48 -77 -8 -10 -11 -18 -7 -18 4 0 1 -8 -7 -17 -8 -10 -18 -25
-21 -33 -4 -8 -20 -37 -37 -65 -17 -27 -33 -58 -37 -67 -3 -10 -9 -18 -14 -18
-5 0 -9 -4 -9 -9 0 -5 -18 -41 -40 -80 -22 -38 -48 -85 -58 -103 -10 -18 -36
-64 -58 -102 -51 -89 -73 -128 -113 -201 -19 -33 -37 -64 -41 -70 -6 -8 -30
-51 -84 -150 -6 -11 -13 -22 -16 -25 -3 -3 -13 -21 -24 -40 -59 -111 -80 -147
-94 -162 -8 -10 -11 -18 -7 -18 4 0 1 -8 -7 -17 -8 -10 -29 -43 -46 -74 -16
-32 -37 -68 -46 -81 -9 -14 -13 -28 -9 -31 3 -4 1 -7 -5 -7 -6 0 12 -39 39
-87 71 -123 99 -172 123 -218 12 -22 24 -41 29 -43 4 -2 7 -7 7 -12 0 -7 134
-250 160 -290 6 -8 13 -22 17 -30 4 -8 26 -48 50 -88 24 -40 43 -74 43 -76 0
-2 28 -52 63 -112 35 -60 82 -143 104 -184 22 -41 73 -131 112 -198 39 -68 71
-128 71 -133 0 -5 3 -9 8 -9 4 0 12 -10 18 -23 5 -12 26 -50 44 -85 l35 -64
22 27 c13 14 23 33 23 41 0 8 5 14 10 14 6 0 10 5 10 11 0 6 18 41 39 77 21
37 51 90 67 117 15 28 45 79 65 115 21 36 52 93 70 128 18 34 36 62 41 62 4 0
8 5 8 11 0 5 25 53 55 105 30 53 55 99 55 104 0 4 7 13 15 20 8 7 12 16 9 21
-3 5 -1 9 4 9 5 0 12 8 16 18 3 9 13 31 23 47 10 17 31 53 48 80 16 28 30 53
30 57 0 4 6 13 13 19 6 7 12 16 12 19 0 4 32 63 71 131 39 68 87 153 106 189
20 36 41 72 47 80 6 8 22 37 36 65 14 27 31 56 38 63 6 7 12 20 12 28 0 8 4
14 8 14 4 0 16 17 26 38 10 20 25 52 34 70 9 17 20 32 24 32 4 0 8 5 8 11 0 8
86 167 120 219 5 8 20 35 32 60 13 25 25 47 28 50 3 3 50 84 104 180 55 96
109 193 122 215 12 22 37 68 55 103 18 34 36 62 41 62 4 0 8 5 8 11 0 9 66
130 170 309 21 36 50 88 65 115 16 28 57 102 93 165 36 63 72 126 80 140 7 14
26 48 42 75 52 90 74 130 75 135 0 3 8 16 16 30 33 53 46 75 48 82 1 4 25 45
52 90 27 46 49 88 49 95 0 6 4 13 8 15 5 2 25 32 45 68 111 202 147 264 156
273 6 6 11 19 11 29 0 10 4 18 9 18 5 0 11 8 14 18 4 9 18 35 32 57 13 22 28
46 32 54 3 8 40 73 81 145 73 128 85 149 152 271 18 33 37 65 42 71 5 7 20 33
33 60 l24 48 -23 41 c-53 90 -142 247 -170 300 -11 22 -24 42 -28 43 -5 2 -8
7 -8 12 0 4 -37 72 -82 151 -44 79 -92 164 -106 189 -14 25 -36 62 -49 82 -12
21 -23 40 -23 42 0 3 -22 43 -50 90 -27 47 -50 89 -50 95 0 5 -3 11 -7 13 -8
3 -46 69 -68 115 -5 13 -13 23 -17 23 -5 0 -8 5 -8 11 0 14 -231 419 -239 419
-3 0 -33 -48 -65 -107z"/>
<path d="M7756 6375 c-9 -13 -16 -29 -16 -34 0 -5 -6 -16 -12 -23 -7 -7 -23
-31 -35 -53 -11 -22 -31 -58 -44 -80 -12 -22 -32 -58 -44 -80 -36 -65 -214
-379 -224 -395 -6 -8 -22 -37 -37 -65 -14 -27 -30 -55 -35 -61 -10 -12 -62
-104 -85 -149 -8 -16 -26 -48 -40 -70 -13 -22 -29 -52 -35 -67 -6 -16 -15 -28
-20 -28 -5 0 -9 -4 -9 -10 0 -5 -48 -94 -107 -197 -58 -104 -114 -203 -125
-221 -20 -37 -227 -402 -257 -454 -10 -18 -35 -61 -55 -95 -20 -34 -36 -66
-36 -71 0 -6 -3 -12 -7 -14 -5 -1 -16 -19 -26 -38 -9 -19 -27 -51 -39 -70 -11
-19 -35 -60 -51 -90 -17 -30 -39 -68 -49 -85 -9 -16 -31 -55 -48 -85 -17 -30
-49 -86 -70 -125 -22 -38 -46 -81 -52 -95 -7 -14 -15 -27 -19 -30 -4 -3 -19
-30 -35 -60 -15 -30 -35 -66 -45 -80 -33 -50 -199 -350 -199 -360 0 -5 -4 -10
-10 -10 -5 0 -10 -4 -10 -8 0 -5 -31 -64 -70 -131 -38 -68 -70 -127 -70 -132
0 -5 -4 -9 -10 -9 -5 0 -10 -9 -10 -19 0 -11 -4 -21 -8 -23 -4 -1 -37 -55 -72
-118 -36 -63 -69 -122 -75 -132 -5 -9 -20 -34 -31 -55 -12 -21 -32 -56 -44
-78 -13 -22 -30 -53 -38 -70 -9 -16 -18 -32 -21 -35 -4 -3 -12 -16 -19 -30 -6
-14 -26 -50 -44 -81 -18 -31 -66 -115 -107 -188 -40 -72 -77 -134 -82 -137 -5
-3 -7 -10 -4 -15 4 -5 1 -9 -4 -9 -6 0 -11 -5 -11 -11 0 -6 -15 -37 -34 -68
-37 -61 -80 -138 -107 -189 -9 -18 -22 -38 -27 -45 -5 -7 -22 -37 -38 -67 -16
-30 -35 -61 -41 -68 -21 -22 -16 -38 42 -138 30 -53 55 -97 55 -99 0 -1 25
-47 56 -101 31 -55 70 -124 87 -154 16 -30 59 -107 95 -170 35 -63 78 -140 94
-170 16 -30 33 -59 37 -65 5 -5 22 -35 38 -65 58 -106 158 -286 179 -320 9
-14 21 -37 27 -53 l11 -27 711 0 c666 0 711 1 721 17 6 10 28 50 49 88 21 39
43 73 49 77 6 4 7 8 2 8 -5 0 -3 8 6 18 8 9 19 28 26 42 6 14 23 43 36 65 14
22 41 72 62 110 20 39 41 71 45 73 5 2 9 10 9 17 0 8 7 20 15 29 9 8 15 17 13
18 -1 2 5 14 13 28 53 87 159 280 159 289 0 6 4 11 9 11 5 0 11 8 15 18 3 9
16 35 29 57 13 22 39 67 57 100 18 33 44 77 57 97 13 21 23 42 23 47 0 5 3 11
8 13 4 2 20 28 35 58 16 30 41 75 56 100 15 25 41 70 58 100 53 96 86 154 107
190 12 19 28 49 36 65 8 17 17 32 20 35 9 8 100 172 100 180 0 4 7 13 15 20 8
7 12 16 9 21 -3 5 -1 9 3 9 5 0 23 28 41 63 18 34 41 76 51 92 19 31 79 136
125 218 14 26 38 68 53 95 14 26 31 56 37 67 6 11 13 22 16 25 3 3 13 21 24
40 59 111 80 147 94 163 8 9 12 17 9 17 -4 0 9 25 28 55 19 30 35 57 35 60 0
3 10 22 23 43 13 20 37 62 54 92 16 30 42 75 57 100 14 25 40 72 57 105 18 33
34 62 38 65 3 3 13 19 21 35 8 17 22 41 32 54 10 13 16 27 13 31 -3 4 2 10 10
14 8 3 15 10 15 15 0 6 48 94 107 197 94 165 105 189 94 207 -19 30 -78 133
-114 202 -12 22 -25 42 -28 45 -3 3 -12 19 -21 35 -21 41 -74 138 -114 208
-19 32 -34 62 -34 68 0 5 -4 9 -9 9 -5 0 -11 8 -14 18 -4 9 -17 35 -29 57 -40
70 -85 149 -108 190 -55 97 -75 132 -103 179 -16 28 -34 60 -39 71 -5 11 -14
29 -21 40 -7 11 -41 72 -76 135 -35 63 -71 123 -79 133 -8 9 -12 17 -8 17 4 0
-1 12 -12 28 -10 15 -45 74 -78 132 -32 58 -62 107 -66 108 -4 2 -8 12 -8 22
0 10 -4 21 -9 25 -6 3 -16 18 -24 33 -7 15 -23 43 -34 62 -11 19 -72 127 -135
240 -64 113 -125 221 -136 240 -12 19 -30 53 -42 75 -39 70 -101 175 -104 175
-2 0 -11 -11 -20 -25z"/>
<path d="M492 3386 c6 -12 53 -95 105 -185 51 -89 93 -167 93 -172 0 -5 5 -9
10 -9 6 0 10 -4 10 -10 0 -5 23 -48 50 -96 28 -48 50 -88 50 -90 0 -2 14 -27
31 -56 30 -50 52 -89 104 -184 40 -72 50 -89 56 -94 3 -3 13 -21 23 -40 9 -19
28 -53 41 -75 12 -22 33 -59 45 -82 12 -23 32 -58 45 -78 14 -19 22 -35 19
-35 -3 0 4 -13 15 -29 12 -16 21 -34 21 -40 0 -6 5 -11 10 -11 6 0 10 -4 10
-10 0 -5 33 -67 73 -137 40 -71 99 -175 132 -233 32 -58 71 -126 87 -153 15
-26 28 -52 28 -57 0 -6 4 -10 9 -10 5 0 11 -8 14 -17 5 -17 59 -116 105 -193
12 -19 29 -51 39 -70 9 -19 19 -37 22 -40 4 -3 11 -14 17 -25 68 -124 115
-208 154 -275 15 -25 75 -132 105 -185 15 -27 42 -75 59 -105 18 -30 35 -62
39 -70 4 -8 23 -42 43 -75 19 -33 38 -68 41 -77 3 -10 9 -18 14 -18 5 0 9 -6
10 -12 0 -7 42 -85 93 -173 l92 -160 1127 -3 c620 -1 1127 1 1127 6 0 4 -6 16
-14 27 -7 11 -23 37 -35 58 -11 20 -31 54 -43 75 -12 20 -28 49 -35 64 -8 15
-19 30 -24 33 -5 4 -7 11 -4 16 4 5 1 9 -4 9 -6 0 -11 4 -11 8 0 5 -41 80 -91
168 -50 87 -103 179 -117 204 -13 25 -42 74 -62 110 -21 36 -39 70 -40 75 -1
6 -7 17 -14 25 -7 8 -24 35 -37 60 -13 25 -28 48 -34 52 -5 4 -6 8 -1 8 5 0 2
8 -6 18 -21 24 -73 116 -71 124 2 3 -4 12 -12 18 -8 7 -15 18 -15 25 0 8 -3
15 -7 17 -5 2 -19 26 -33 53 -14 28 -28 52 -31 55 -3 3 -23 37 -44 75 -20 39
-41 75 -45 80 -5 6 -19 30 -32 55 -28 50 -53 96 -125 220 -27 47 -52 92 -56
100 -4 8 -17 31 -29 50 -11 19 -33 56 -47 82 -14 25 -48 86 -76 134 -95 166
-108 189 -138 244 -16 30 -38 67 -48 82 -11 14 -19 29 -19 32 0 4 -18 36 -40
72 -22 36 -40 72 -40 80 0 8 -4 14 -8 14 -5 0 -26 33 -47 73 -21 39 -40 74
-44 77 -3 3 -15 23 -27 45 -52 99 -88 161 -102 178 -8 9 -11 17 -6 17 5 0 5 4
-1 8 -5 4 -16 18 -23 31 -15 25 -41 71 -70 124 -11 17 -42 73 -71 123 -50 89
-52 92 -91 96 -22 2 -49 0 -60 -4 -12 -4 -19 -4 -16 0 2 4 -12 6 -32 5 -21 -1
-55 -2 -77 -3 -22 0 -486 1 -1032 3 l-992 4 11 -21z"/>
</g>
</svg>
